2.8Hzhigh3min_grf.mot
version=1
nRows=10
nColumns 19
inDegrees=yes
endheader
time	1_ground_force_vx	1_ground_force_vy	1_ground_force_vz	1_ground_force_px	1_ground_force_py	1_ground_force_pz	1_ground_torque_x	1_ground_torque_y	1_ground_torque_z	2_ground_force_vx	2_ground_force_vy	2_ground_force_vz	2_ground_force_px	2_ground_force_py	2_ground_force_pz	2_ground_torque_x	2_ground_torque_y	2_ground_torque_z
            0.005000	           -0.875850	         1021.265315	          -51.748212	           -0.264642	            0.006127	           -0.384233	           -0.001627	            1.897287	           -0.096137	            0.742976	         1057.275763	           37.512207	           -0.279959	            0.005328	           -0.656988	           -0.000779	           -1.108541	           -0.039331
            0.005500	           -0.552375	         1011.529715	          -51.469760	           -0.264521	            0.006128	           -0.384424	           -0.001216	            2.227031	           -0.113318	            0.731330	         1047.515877	           37.430475	           -0.279984	            0.005326	           -0.656652	           -0.000887	           -1.270528	           -0.045399
            0.006000	           -0.365946	         1004.135878	          -50.814065	           -0.264242	            0.006127	           -0.384226	           -0.000780	            2.140021	           -0.108295	            0.472664	         1041.255051	           37.032829	           -0.279800	            0.005328	           -0.656797	           -0.000586	           -1.290637	           -0.045902
            0.006500	            0.049491	          994.760177	          -50.396724	           -0.264200	            0.006127	           -0.384329	            0.000084	            1.696144	           -0.085930	            0.221787	         1032.786287	           36.204947	           -0.279756	            0.005327	           -0.656673	           -0.000252	           -1.173695	           -0.041145
            0.007000	            0.007570	          985.742891	          -49.518140	           -0.264244	            0.006127	           -0.384311	            0.000009	            1.211279	           -0.060848	            0.019816	         1023.764463	           35.515857	           -0.279685	            0.005327	           -0.656489	           -0.000018	           -0.938776	           -0.032567
            0.007500	           -0.354278	          977.625059	          -48.176335	           -0.264135	            0.006127	           -0.384288	           -0.000421	            1.161890	           -0.057257	            0.795026	         1016.587888	           34.785991	           -0.279653	            0.005327	           -0.656605	           -0.000655	           -0.838159	           -0.028680
            0.008000	           -0.395108	          968.245533	          -46.886598	           -0.263995	            0.006127	           -0.384357	           -0.000580	            1.422204	           -0.068869	            1.526627	         1008.491049	           33.865148	           -0.279512	            0.005328	           -0.656636	           -0.001229	           -0.811891	           -0.027263
            0.008500	            0.068170	          959.767342	          -45.594240	           -0.263843	            0.006127	           -0.384305	            0.000142	            1.997191	           -0.094878	            1.644692	         1001.679717	           33.324587	           -0.279436	            0.005329	           -0.656876	           -0.001485	           -0.904518	           -0.030092
            0.009000	            0.209282	          949.489368	          -44.950805	           -0.263723	            0.006128	           -0.384369	            0.000475	            2.154572	           -0.102002	            2.053263	          992.290472	           33.009349	           -0.279421	            0.005328	           -0.656492	           -0.002317	           -1.119859	           -0.037253
            0.009500	            0.441281	          940.474101	          -44.531463	           -0.263618	            0.006128	           -0.384450	            0.000894	            1.906370	           -0.090267	            1.428417	          983.634692	           32.556394	           -0.279339	            0.005328	           -0.656403	           -0.001549	           -1.066893	           -0.035312
